Coordinates
version=1
nRows=8
nColumns=42
inDegrees=yes

Units are S.I. units (second, meters, Newtons, ...)
If the header above contains a line with 'inDegrees', this indicates whether rotational values are in degrees (yes) or radians (no).

endheader
time	pelvis_tilt	pelvis_list	pelvis_rotation	pelvis_tx	pelvis_ty	pelvis_tz	hip_flexion_r	hip_adduction_r	hip_rotation_r	knee_angle_r	knee_adduction_r	knee_angle_r_beta	ankle_angle_r	subtalar_angle_r	mtp_angle_r	hip_flexion_l	hip_adduction_l	hip_rotation_l	knee_angle_l	knee_adduction_l	knee_angle_l_beta	ankle_angle_l	subtalar_angle_l	mtp_angle_l	lumbar_extension	lumbar_bending	lumbar_rotation	arm_flex_r	arm_add_r	arm_rot_r	elbow_flex_r	pro_sup_r	wrist_flex_r	wrist_dev_r	arm_flex_l	arm_add_l	arm_rot_l	elbow_flex_l	pro_sup_l	wrist_flex_l	wrist_dev_l
      1.65000000	      8.65560370	     -0.30146256	     -0.33277170	      0.94600266	      1.00366733	     -0.22634948	     17.44914210	     -5.38137466	     -8.20607386	     21.99207751	      7.48377198	      0.38383416	      1.91317256	     -9.02127461	     -7.51099374	    -20.86500047	     -2.74734250	     -0.47317774	      6.38199506	     11.43510103	      0.11138683	     14.29790713	      0.37448514	     -7.51099374	    -21.02489313	     -0.07755453	     -4.71828735	     -7.64855188	     -5.81706641	    -21.49073750	      8.50396036	     90.00000001	      0.00000000	      0.00000000	     17.87201129	    -19.30349606	     -6.46373058	     41.60734461	     90.00000001	      0.00000000	      0.00000000
      1.66000000	      8.45980706	     -0.16653358	     -0.10301097	      0.96003585	      1.00045521	     -0.22633708	     17.54648460	     -5.48447103	     -9.34519959	     18.62637804	      7.66846594	      0.32509162	      2.32122846	     -7.39971128	     -7.51065939	    -21.42111693	     -2.68746017	     -0.47464441	      6.63977119	     11.39359702	      0.11588587	     14.94172697	      0.79672690	     -7.51065939	    -20.79701492	     -0.04027051	     -5.02671340	     -8.40499991	     -5.62848140	    -21.64230421	      8.45910226	     90.00000001	      0.00000000	      0.00000000	     18.50739620	    -19.85276636	     -5.91213365	     42.66941178	     90.00000001	      0.00000000	      0.00000000
      1.67000000	      8.39733487	     -0.18570911	      0.22908581	      0.97438685	      0.99737233	     -0.22631481	     17.45207887	     -5.44050333	    -10.69479582	     15.53469128	      7.88860224	      0.27113151	      2.69062435	     -5.50555793	     -7.51017761	    -22.15961948	     -2.88582788	     -0.54072765	      6.86315940	     11.45281212	      0.11978473	     15.56547741	      1.39761096	     -7.51017761	    -20.69537791	      0.18740970	     -5.37395729	     -9.11768714	     -5.48283563	    -21.95204954	      8.45845464	     90.00000001	      0.00000000	      0.00000000	     19.04174345	    -20.38872043	     -5.30591060	     43.79617439	     90.00000001	      0.00000000	      0.00000000
      1.68000000	      8.25913776	     -0.02189279	      0.50965552	      0.98879373	      0.99412240	     -0.22647307	     17.52810561	     -5.69128846	    -11.74919782	     12.96352518	      8.40910661	      0.22625620	      3.09805959	     -3.99669234	     -7.50982992	    -22.74666211	     -2.80750304	     -0.49485199	      7.22990787	     11.36885860	      0.12618570	     16.10688635	      1.80099596	     -7.50982992	    -20.51139956	      0.22631361	     -5.72248382	     -9.77543573	     -5.36736278	    -22.17435012	      8.42585811	     90.00000001	      0.00000000	      0.00000000	     19.51269320	    -20.87665868	     -4.79851859	     44.86285097	     90.00000001	      0.00000000	      0.00000000
      1.69000000	      8.11044652	      0.10020618	      0.81026272	      1.00334081	      0.99091983	     -0.22654594	     17.66609029	     -5.88992773	    -12.68839466	     10.87847906	      8.93216074	      0.18986528	      3.40555273	     -2.60882677	     -7.50951503	    -23.30976086	     -2.82724323	     -0.40300402	      7.63046772	     11.35472050	      0.13317679	     16.58387452	      2.16827863	     -7.50951503	    -20.30967307	      0.30763839	     -6.08015088	    -10.37825546	     -5.26820846	    -22.44397294	      8.43519869	     90.00000001	      0.00000000	      0.00000000	     19.92195121	    -21.32245141	     -4.38420848	     45.85793104	     90.00000001	      0.00000000	      0.00000000
      1.70000000	      7.82781244	      0.28063437	      1.05891011	      1.01797401	      0.98762931	     -0.22657205	     18.02967211	     -6.12592899	    -13.25003978	      9.31358546	      9.43131945	      0.16255273	      3.56823846	     -1.59726825	     -7.50934507	    -23.69148750	     -2.76006552	     -0.18894330	      8.10574790	     11.30924537	      0.14147199	     16.96121368	      2.34444856	     -7.50934507	    -19.95760423	      0.31005619	     -6.40353232	    -10.94471780	     -5.18754321	    -22.64798812	      8.52245253	     90.00000001	      0.00000000	      0.00000000	     20.26729193	    -21.68592201	     -4.13322046	     46.69301586	     90.00000001	      0.00000000	      0.00000000
      1.71000000	      7.77988230	      0.22743256	      1.39957516	      1.03295787	      0.98477342	     -0.22652648	     18.11513755	     -6.09225279	    -13.82247877	      8.21077999	      9.81218995	      0.14330514	      3.78225904	     -0.67892543	     -7.50912467	    -24.32240997	     -3.01927190	      0.02803445	      8.62198866	     11.30446277	      0.15048209	     17.22850770	      2.59267914	     -7.50912467	    -19.83810032	      0.58202544	     -6.74276316	    -11.37713665	     -5.14542127	    -22.98914522	      8.47430828	     90.00000001	      0.00000000	      0.00000000	     20.46048898	    -22.06710413	     -3.82118532	     47.62739067	     90.00000001	      0.00000000	      0.00000000
      1.72000000	      7.58888096	      0.20676261	      1.69163832	      1.04802391	      0.98191203	     -0.22647659	     18.42851044	     -6.02838885	    -14.00248582	      7.60984249	     10.00674275	      0.13281681	      3.88315890	     -0.08691032	     -7.50897358	    -24.73959758	     -3.22592218	      0.31522029	      9.24985365	     11.29318646	      0.16144040	     17.41199467	      2.68853884	     -7.50897358	    -19.56758733	      0.81609049	     -7.05220139	    -11.77510659	     -5.14354388	    -23.24817287	      8.52061704	     90.00000001	      0.00000000	      0.00000000	     20.58637352	    -22.34035900	     -3.68308110	     48.37679342	     90.00000001	      0.00000000	      0.00000000
